<mxfile host="Electron" agent="Mozilla/5.0 (Windows NT 10.0; Win64; x64) AppleWebKit/537.36 (KHTML, like Gecko) draw.io/27.0.5 Chrome/134.0.6998.205 Electron/35.3.0 Safari/537.36" version="27.0.5">
  <diagram name="Page-1" id="-NwlCuDehGH4M0mD9lRl">
    <mxGraphModel dx="4074" dy="4741" grid="1" gridSize="10" guides="1" tooltips="1" connect="1" arrows="1" fold="1" page="1" pageScale="1" pageWidth="827" pageHeight="1169" math="0" shadow="0">
      <root>
        <mxCell id="0" />
        <mxCell id="1" parent="0" />
        <mxCell id="btWpgeBg8h9kaQHcUHAh-25" value="&lt;font style=&quot;font-size: 22px;&quot;&gt;&lt;u style=&quot;&quot;&gt;AI controller api&lt;/u&gt;&lt;/font&gt;&lt;div&gt;&lt;font style=&quot;font-size: 18px;&quot;&gt;This api is used solely by the main web api for all ai operations within the platform. This includes but is not limited to FAISS (facebook ai similarity search) and chatgpt operations.&lt;/font&gt;&lt;/div&gt;" style="text;html=1;align=center;verticalAlign=middle;whiteSpace=wrap;rounded=0;" parent="1" vertex="1">
          <mxGeometry x="1262.87" y="-1700" width="368.12" height="290" as="geometry" />
        </mxCell>
        <mxCell id="btWpgeBg8h9kaQHcUHAh-2" value="" style="shape=image;verticalLabelPosition=bottom;labelBackgroundColor=default;verticalAlign=top;aspect=fixed;imageAspect=0;image=https://www.iconpacks.net/icons/1/free-computer-icon-956-thumb.png;" parent="1" vertex="1">
          <mxGeometry x="310" y="-1170" width="272" height="272" as="geometry" />
        </mxCell>
        <mxCell id="btWpgeBg8h9kaQHcUHAh-3" value="&lt;font style=&quot;font-size: 26px;&quot;&gt;User&lt;/font&gt;" style="text;html=1;align=center;verticalAlign=middle;whiteSpace=wrap;rounded=0;" parent="1" vertex="1">
          <mxGeometry x="383" y="-1090" width="126" height="45" as="geometry" />
        </mxCell>
        <mxCell id="btWpgeBg8h9kaQHcUHAh-5" value="" style="shape=image;verticalLabelPosition=bottom;labelBackgroundColor=default;verticalAlign=top;aspect=fixed;imageAspect=0;image=https://static-00.iconduck.com/assets.00/dotnet-icon-2048x2048-6nj1im30.png;" parent="1" vertex="1">
          <mxGeometry x="1325" y="-970" width="240" height="240" as="geometry" />
        </mxCell>
        <mxCell id="btWpgeBg8h9kaQHcUHAh-6" value="" style="endArrow=classic;html=1;rounded=0;exitX=1;exitY=0.5;exitDx=0;exitDy=0;entryX=0;entryY=0.5;entryDx=0;entryDy=0;" parent="1" source="btWpgeBg8h9kaQHcUHAh-2" target="btWpgeBg8h9kaQHcUHAh-5" edge="1">
          <mxGeometry width="50" height="50" relative="1" as="geometry">
            <mxPoint x="582" y="-999.9999999999998" as="sourcePoint" />
            <mxPoint x="1150" y="-999.9999999999998" as="targetPoint" />
          </mxGeometry>
        </mxCell>
        <mxCell id="btWpgeBg8h9kaQHcUHAh-7" value="&lt;font style=&quot;font-size: 18px;&quot;&gt;HTTPS&lt;/font&gt;" style="edgeLabel;html=1;align=center;verticalAlign=middle;resizable=0;points=[];" parent="btWpgeBg8h9kaQHcUHAh-6" vertex="1" connectable="0">
          <mxGeometry x="0.0434" y="-5" relative="1" as="geometry">
            <mxPoint x="-148" y="-37" as="offset" />
          </mxGeometry>
        </mxCell>
        <mxCell id="btWpgeBg8h9kaQHcUHAh-10" value="" style="shape=image;verticalLabelPosition=bottom;labelBackgroundColor=default;verticalAlign=top;aspect=fixed;imageAspect=0;image=https://static-00.iconduck.com/assets.00/node-js-icon-114x128-ozxlawak.png;" parent="1" vertex="1">
          <mxGeometry x="1389.93" y="-1490" width="114" height="128" as="geometry" />
        </mxCell>
        <mxCell id="btWpgeBg8h9kaQHcUHAh-11" value="" style="endArrow=classic;html=1;rounded=0;exitX=0.5;exitY=0;exitDx=0;exitDy=0;entryX=0.5;entryY=1;entryDx=0;entryDy=0;" parent="1" source="btWpgeBg8h9kaQHcUHAh-5" target="btWpgeBg8h9kaQHcUHAh-10" edge="1">
          <mxGeometry width="50" height="50" relative="1" as="geometry">
            <mxPoint x="1610.01" y="-1400" as="sourcePoint" />
            <mxPoint x="1660.01" y="-1450" as="targetPoint" />
          </mxGeometry>
        </mxCell>
        <mxCell id="btWpgeBg8h9kaQHcUHAh-12" value="&lt;font style=&quot;font-size: 23px;&quot;&gt;HTTPS ops&lt;/font&gt;" style="edgeLabel;html=1;align=center;verticalAlign=middle;resizable=0;points=[];" parent="btWpgeBg8h9kaQHcUHAh-11" vertex="1" connectable="0">
          <mxGeometry x="0.0141" y="-1" relative="1" as="geometry">
            <mxPoint as="offset" />
          </mxGeometry>
        </mxCell>
        <mxCell id="btWpgeBg8h9kaQHcUHAh-17" value="" style="shape=image;verticalLabelPosition=bottom;labelBackgroundColor=default;verticalAlign=top;aspect=fixed;imageAspect=0;image=https://download.logo.wine/logo/PostgreSQL/PostgreSQL-Logo.wine.png;" parent="1" vertex="1">
          <mxGeometry x="2530" y="-1180" width="550" height="366.67" as="geometry" />
        </mxCell>
        <mxCell id="btWpgeBg8h9kaQHcUHAh-18" value="" style="endArrow=classic;html=1;rounded=0;exitX=1;exitY=0.5;exitDx=0;exitDy=0;entryX=0.291;entryY=0.511;entryDx=0;entryDy=0;entryPerimeter=0;" parent="1" source="btWpgeBg8h9kaQHcUHAh-5" target="btWpgeBg8h9kaQHcUHAh-17" edge="1">
          <mxGeometry width="50" height="50" relative="1" as="geometry">
            <mxPoint x="2140" y="-1160" as="sourcePoint" />
            <mxPoint x="2190" y="-1210" as="targetPoint" />
          </mxGeometry>
        </mxCell>
        <mxCell id="btWpgeBg8h9kaQHcUHAh-20" value="&lt;font style=&quot;font-size: 22px;&quot;&gt;HTTPS or SSL&lt;/font&gt;" style="edgeLabel;html=1;align=center;verticalAlign=middle;resizable=0;points=[];" parent="btWpgeBg8h9kaQHcUHAh-18" vertex="1" connectable="0">
          <mxGeometry x="0.077" relative="1" as="geometry">
            <mxPoint x="1" as="offset" />
          </mxGeometry>
        </mxCell>
        <mxCell id="btWpgeBg8h9kaQHcUHAh-24" value="&lt;div&gt;&lt;font style=&quot;font-size: 22px;&quot;&gt;&lt;u style=&quot;&quot;&gt;Main web api&lt;/u&gt;&lt;/font&gt;&lt;/div&gt;&lt;div&gt;&lt;font style=&quot;font-size: 18px;&quot;&gt;This api is responsible for all public facing api ops. it is esstientially the core part of the platform, it handles all crud operations for file collections and documents, all authorization to resources (access control) and it also uses the AI controller api for certain operations.&lt;/font&gt;&lt;/div&gt;" style="text;html=1;align=center;verticalAlign=middle;whiteSpace=wrap;rounded=0;" parent="1" vertex="1">
          <mxGeometry x="1260" y="-730" width="370" height="170" as="geometry" />
        </mxCell>
        <mxCell id="btWpgeBg8h9kaQHcUHAh-26" value="&lt;div&gt;&lt;font style=&quot;font-size: 22px;&quot;&gt;&lt;u style=&quot;&quot;&gt;Database&lt;/u&gt;&lt;/font&gt;&lt;/div&gt;&lt;div&gt;&lt;font style=&quot;font-size: 18px;&quot;&gt;This just stores all the file collections, file documents, file collection FAISS stores, users and more&lt;/font&gt;&lt;/div&gt;" style="text;html=1;align=center;verticalAlign=middle;whiteSpace=wrap;rounded=0;" parent="1" vertex="1">
          <mxGeometry x="2650" y="-910" width="370" height="170" as="geometry" />
        </mxCell>
        <mxCell id="btWpgeBg8h9kaQHcUHAh-28" value="" style="shape=image;verticalLabelPosition=bottom;labelBackgroundColor=default;verticalAlign=top;aspect=fixed;imageAspect=0;image=https://icons.veryicon.com/png/o/miscellaneous/gcy_icofont/authentication-29.png;" parent="1" vertex="1">
          <mxGeometry x="760" y="-1670" width="242" height="242" as="geometry" />
        </mxCell>
        <mxCell id="btWpgeBg8h9kaQHcUHAh-29" value="" style="endArrow=classic;html=1;rounded=0;exitX=0.5;exitY=0;exitDx=0;exitDy=0;entryX=0.207;entryY=0.826;entryDx=0;entryDy=0;entryPerimeter=0;" parent="1" source="btWpgeBg8h9kaQHcUHAh-2" target="btWpgeBg8h9kaQHcUHAh-28" edge="1">
          <mxGeometry width="50" height="50" relative="1" as="geometry">
            <mxPoint x="1520" y="-990" as="sourcePoint" />
            <mxPoint x="1570" y="-1040" as="targetPoint" />
          </mxGeometry>
        </mxCell>
        <mxCell id="btWpgeBg8h9kaQHcUHAh-33" value="&lt;font style=&quot;font-size: 18px;&quot;&gt;HTTPS&lt;/font&gt;" style="edgeLabel;html=1;align=center;verticalAlign=middle;resizable=0;points=[];" parent="btWpgeBg8h9kaQHcUHAh-29" vertex="1" connectable="0">
          <mxGeometry x="-0.0897" relative="1" as="geometry">
            <mxPoint as="offset" />
          </mxGeometry>
        </mxCell>
        <mxCell id="btWpgeBg8h9kaQHcUHAh-30" value="" style="endArrow=classic;html=1;rounded=0;entryX=0.826;entryY=0.826;entryDx=0;entryDy=0;entryPerimeter=0;exitX=0;exitY=0.5;exitDx=0;exitDy=0;" parent="1" source="btWpgeBg8h9kaQHcUHAh-5" target="btWpgeBg8h9kaQHcUHAh-28" edge="1">
          <mxGeometry width="50" height="50" relative="1" as="geometry">
            <mxPoint x="1520" y="-990" as="sourcePoint" />
            <mxPoint x="1570" y="-1040" as="targetPoint" />
          </mxGeometry>
        </mxCell>
        <mxCell id="btWpgeBg8h9kaQHcUHAh-34" value="&lt;font style=&quot;font-size: 18px;&quot;&gt;HTTPS&lt;/font&gt;" style="edgeLabel;html=1;align=center;verticalAlign=middle;resizable=0;points=[];" parent="btWpgeBg8h9kaQHcUHAh-30" vertex="1" connectable="0">
          <mxGeometry x="0.183" y="-3" relative="1" as="geometry">
            <mxPoint as="offset" />
          </mxGeometry>
        </mxCell>
        <mxCell id="btWpgeBg8h9kaQHcUHAh-35" value="&lt;font style=&quot;font-size: 22px;&quot;&gt;&lt;u style=&quot;&quot;&gt;OAuth auth server&lt;/u&gt;&lt;/font&gt;&lt;div&gt;&lt;font style=&quot;font-size: 18px;&quot;&gt;This is a black box service to us, responsible for authenticating users and issuing json web tokens to use on our platform.&amp;nbsp;&lt;/font&gt;&lt;/div&gt;" style="text;html=1;align=center;verticalAlign=middle;whiteSpace=wrap;rounded=0;" parent="1" vertex="1">
          <mxGeometry x="696.94" y="-1860" width="368.12" height="290" as="geometry" />
        </mxCell>
      </root>
    </mxGraphModel>
  </diagram>
</mxfile>
